# xmcd
#
# Track frame offsets:
#	150
#	21472
#	40766
#	59171
#	81933
#	104964
#	128025
#	148405
#	171980
#	193539
#
# Disc length: 2902 seconds
#
# Revision: 0
# Processed by: cddbd v1.5.2PL0 Copyright (c) Steve Scherf et al.
# Submitted via: EZCDAudioConverter 3.0.8.1
#
DISCID=9e0b540a
DTITLE=SANTIAGO ALL STARS - JOYA Y RARESA
DYEAR=2010
DGENRE=SALSA
TTITLE0=SANTIAGO DE FIESTA
TTITLE1=LA JOYA DEL PACIFICO
TTITLE2=SI ME VAS A ABNDONAR
TTITLE3=CON UNA PALA Y UN SOMBRERO
TTITLE4=BAÑO DE MAR A MEDIA NOCHE
TTITLE5=SABROSO GUAGANCO
TTITLE6=BOCINCHOSA
TTITLE7=FORMA LA RUMBA SONERO
TTITLE8=OYE LA NOTICIA
TTITLE9=DESCARGA SANTIAGO
EXTD=
EXTT0=
EXTT1=
EXTT2=
EXTT3=
EXTT4=
EXTT5=
EXTT6=
EXTT7=
EXTT8=
EXTT9=
PLAYORDER=
